<?xml version="1.0" encoding="utf-8"?>
<!-- Svg Vector Icons : http://www.onlinewebfonts.com/icon -->
<!DOCTYPE svg PUBLIC "-//W3C//DTD SVG 1.1//EN" "http://www.w3.org/Graphics/SVG/1.1/DTD/svg11.dtd">
<svg version="1.1" xmlns="http://www.w3.org/2000/svg" xmlns:xlink="http://www.w3.org/1999/xlink" x="0px" y="0px" viewBox="0 0 256 256" enable-background="new 0 0 256 256" xml:space="preserve">
<metadata> Svg Vector Icons : http://www.onlinewebfonts.com/icon </metadata>
<g><g><path fill="#000000" d="M83.2,143.6H63.9c-1.2-5-1.9-10.2-1.9-15.6c0-5.5,0.7-10.6,2-15.7c0.6,0.3,1.2,0.2,1.9,0.2h17.3c-1.1,5.1-1.7,10.3-1.7,15.5C81.4,133.3,82.1,138.5,83.2,143.6z"/><path fill="#000000" d="M85.2,104.7H66.3c8.4-22.1,30.1-39,54.1-42.4C104.9,71.2,91,87,85.2,104.7z"/><path fill="#000000" d="M124.1,193.8c-26.6-1.6-48.8-18.8-57.8-42.5h19.1C92,169.8,106.1,186.2,124.1,193.8z"/><path fill="#000000" d="M124.1,104.7H93.2c5.6-16.3,16.7-29.5,30.9-37.5V104.7z"/><path fill="#000000" d="M90.9,112.5h33.2v31.1H91c-1.2-5-1.9-10.2-1.9-15.6C89.2,122.8,89.8,117.5,90.9,112.5z"/><path fill="#000000" d="M124.1,151.3l0.1,36.5c-14-7.5-25-21.5-30.7-36.5H124.1z"/><path fill="#000000" d="M162.2,104.7h-30.3V67.3C145.7,75.3,156.5,88.9,162.2,104.7z"/><path fill="#000000" d="M131.9,188.8v-37.5h31.5C157.9,167.5,146.6,180.8,131.9,188.8z"/><path fill="#000000" d="M165.4,143.6h-33.5v-31.1h32.7c1.4,5.7,2.2,11.6,2.2,17.5C166.8,134.6,166.3,139.2,165.4,143.6z"/><path fill="#000000" d="M171.3,151.3h18.4c-8.6,22.8-29.4,39.5-54.4,42.2C152.3,185.1,165.5,169.9,171.3,151.3z"/><path fill="#000000" d="M189.7,104.7h-19.5c-6.3-18.2-19.1-33.9-35.4-42.3C160.1,65.1,181.1,81.8,189.7,104.7z"/><path fill="#000000" d="M172.5,112.5h19.6c1.2,5,1.9,10.2,1.9,15.5c0,5.4-0.7,10.5-1.9,15.6h-18.8c0.8-4.4,1.3-8.9,1.3-13.6C174.6,124.1,173.9,118.2,172.5,112.5z"/><path fill="#000000" d="M128,10C62.8,10,10,62.8,10,128c0,65.2,52.8,118,118,118c65.2,0,118-52.8,118-118C246,62.8,193.2,10,128,10z M113.3,200.3c-33.7-6.8-59-36.6-59-72.3c0-40.7,33-73.7,73.8-73.7c40.7,0,73.8,33,73.8,73.7c0,40.7-33,73.8-73.8,73.8C123,201.8,118,201.2,113.3,200.3"/></g></g>
</svg>