<svg xmlns="http://www.w3.org/2000/svg" version="1.1" xmlns:xlink="http://www.w3.org/1999/xlink" xmlns:svgjs="http://svgjs.dev/svgjs" width="2000" height="429" viewBox="0 0 2000 429"><g transform="matrix(1,0,0,1,-1.2112696095522324,0.4025878633796083)"><svg viewBox="0 0 396 85" data-background-color="#ffffff" preserveAspectRatio="xMidYMid meet" height="429" width="2000" xmlns="http://www.w3.org/2000/svg" xmlns:xlink="http://www.w3.org/1999/xlink"><g id="tight-bounds" transform="matrix(1,0,0,1,0.24008861730862918,-0.07968223737933045)"><svg viewBox="0 0 395.52 85.15944906345686" height="85.15944906345686" width="395.52"><g><svg viewBox="0 0 395.52 85.15944906345686" height="85.15944906345686" width="395.52"><g><svg viewBox="0 0 395.52 85.15944906345686" height="85.15944906345686" width="395.52"><g id="textblocktransform"><svg viewBox="0 0 395.52 85.15944906345686" height="85.15944906345686" width="395.52" id="textblock"><g><svg viewBox="0 0 395.52 85.15944906345686" height="85.15944906345686" width="395.52"><path d="M394.594 18.265C392.735 9.426 387.435 6.968 387.435 6.968 371.165-2.137 350.86-0.174 332.619 1.134 300.414 1.187 268.339 3.132 236.208 4.175 168.767 4.334 100.749 1.717 33.643 8.17 27.339 10.15-6.54 8.559 1.121 19.397 3.129 23.905 10.456 28.908 10.232 33.045 11.236 33.77 12.631 32.108 13.226 33.151 15.309 35.962 18.711 34.636 21.501 36.298 17.614 40.735 20.403 44.43 23.062 48.302 18.377 49.309 12.371 48.832 9.675 52.173 9.396 54.596 7.89 54.136 6.235 54.03 5.026 53.959 2.59 54.224 2.999 54.984 4.394 57.583-1.594 59.086 2.162 61.632-0.422 64.39 3.948 66.776 3.353 69.764 3.278 70.365 3.687 70.878 4.338 71.019 7.22 71.78 3.018 73.265 3.464 74.873 33.029 85.87 65.104 78.268 95.394 83.324 103.259 79.788 97.346 84.579 100.489 83.837 102.943 82.97 104.728 86.559 107.499 84.526 107.927 83.943 107.276 82.564 108.8 82.829 109.6 82.97 110.307 82.935 110.418 82.122 110.586 80.902 109.117 81.662 108.726 81.026 112.947 77.808 111.906 85.463 115.866 85.145 115.68 84.208 114.528 82.864 116.889 83.041 119.232 81.697 119.306 80.584 121.389 83.607 121.463 84.261 121.835 84.721 122.43 85.039 128.938 81.751 135.409 86.206 142.233 84.721 146.417 83.094 150.433 85.605 154.672 84.986 156.16 84.491 157.666 83.607 159.098 85.092 176.632 85.41 195.319 84.084 211.943 85.145 256.364 83.165 303.836 85.958 350.674 83.342 361.719 82.334 373.192 80.902 383.958 79.753 383.958 79.753 392.679 76.606 392.679 62.463S394.538 50.087 394.817 38.826C395.096 27.564 396.398 27.105 394.538 18.265Z" opacity="1" fill="#ffffff" data-fill-palette-color="tertiary"></path><g transform="matrix(1,0,0,1,55.76832,26.230666666666668)"><svg width="283.98335999999995" viewBox="0.75 -35.75 315.66 36.35" height="32.69811573012353" data-palette-color="#78d2d6"><path d="M11.2 0.6L11.2 0.6Q6.5 0.6 3.75-1.93 1-4.45 0.75-9.45L0.75-9.45 5.1-10.7Q5-6.9 6.85-5.08 8.7-3.25 11.2-3.25L11.2-3.25Q12.55-3.25 13.9-3.85 15.25-4.45 16.13-6.05 17-7.65 17-10.65L17-10.65 17-33.4 21.7-33.4 21.7-10.6Q21.7-5.15 18.9-2.27 16.1 0.6 11.2 0.6ZM38.4 0L29.3 0 29.3-33.4 38.4-33.4Q42.4-33.4 45.72-32.58 49.05-31.75 51.5-29.85 53.95-27.95 55.3-24.73 56.65-21.5 56.65-16.75L56.65-16.75Q56.65-11.95 55.3-8.72 53.95-5.5 51.5-3.58 49.05-1.65 45.72-0.83 42.4 0 38.4 0L38.4 0ZM34-29.45L34-3.95 38.3-3.95Q40.9-3.95 43.32-4.38 45.75-4.8 47.67-6.08 49.6-7.35 50.72-9.93 51.85-12.5 51.85-16.75L51.85-16.75Q51.85-21 50.72-23.53 49.6-26.05 47.67-27.33 45.75-28.6 43.32-29.03 40.9-29.45 38.3-29.45L38.3-29.45 34-29.45ZM74.04 0L69.34 0 69.34-12.95 57.29-33.4 62.44-33.4 71.69-17.25 80.89-33.4 86.04-33.4 74.04-12.95 74.04 0ZM91.84-22.35L89.24-22.35 88.54-33.4 92.54-33.4 91.84-22.35ZM106.49 0.6L106.49 0.6Q104.34 0.6 102.26-0.08 100.19-0.75 98.56-2.13 96.94-3.5 96.09-5.6L96.09-5.6 100.14-7.1Q100.69-4.9 102.56-3.93 104.44-2.95 106.49-2.95L106.49-2.95Q107.99-2.95 109.31-3.4 110.64-3.85 111.49-4.7 112.34-5.55 112.34-6.65L112.34-6.65Q112.34-8.7 110.71-9.55 109.09-10.4 106.84-10.85L106.84-10.85 103.39-11.55Q101.59-11.95 100.04-12.68 98.49-13.4 97.54-14.75 96.59-16.1 96.59-18.35L96.59-18.35Q96.59-20.6 97.99-22.13 99.39-23.65 101.56-24.45 103.74-25.25 106.14-25.25L106.14-25.25Q109.09-25.25 111.71-24.03 114.34-22.8 115.44-20.2L115.44-20.2 111.49-18.75Q110.84-20.25 109.21-20.98 107.59-21.7 105.84-21.7L105.84-21.7Q103.94-21.7 102.39-20.85 100.84-20 100.84-18.4L100.84-18.4Q100.84-16.8 102.16-16.07 103.49-15.35 105.44-14.95L105.44-14.95 108.69-14.3Q110.69-13.9 112.49-13.15 114.29-12.4 115.44-10.93 116.59-9.45 116.59-6.8L116.59-6.8Q116.59-4.45 115.14-2.8 113.69-1.15 111.39-0.28 109.09 0.6 106.49 0.6ZM140.58-0.05L135.88-0.05 135.88-33.4 146.33-33.4Q150.43-33.4 153.56-32.6 156.68-31.8 158.46-29.63 160.23-27.45 160.23-23.3L160.23-23.3Q160.23-19.2 158.46-17.03 156.68-14.85 153.56-14.08 150.43-13.3 146.33-13.3L146.33-13.3 140.58-13.3 140.58-0.05ZM140.58-29.45L140.58-17.35 146.73-17.35Q149.18-17.35 151.13-17.7 153.08-18.05 154.26-19.33 155.43-20.6 155.43-23.3L155.43-23.3Q155.43-26.05 154.26-27.35 153.08-28.65 151.13-29.05 149.18-29.45 146.73-29.45L146.73-29.45 140.58-29.45ZM175.93 0.6L175.93 0.6Q173.78 0.6 171.68-0.15 169.58-0.9 167.86-2.48 166.13-4.05 165.08-6.5 164.03-8.95 164.03-12.3L164.03-12.3Q164.03-15.65 165.08-18.1 166.13-20.55 167.86-22.13 169.58-23.7 171.68-24.45 173.78-25.2 175.93-25.2L175.93-25.2Q178.08-25.2 180.21-24.45 182.33-23.7 184.06-22.13 185.78-20.55 186.81-18.1 187.83-15.65 187.83-12.3L187.83-12.3Q187.83-8.95 186.81-6.5 185.78-4.05 184.06-2.48 182.33-0.9 180.21-0.15 178.08 0.6 175.93 0.6ZM175.93-3.1L175.93-3.1Q177.73-3.1 179.43-4.08 181.13-5.05 182.23-7.08 183.33-9.1 183.33-12.3L183.33-12.3Q183.33-15.5 182.23-17.53 181.13-19.55 179.43-20.53 177.73-21.5 175.93-21.5L175.93-21.5Q174.18-21.5 172.46-20.53 170.73-19.55 169.63-17.53 168.53-15.5 168.53-12.3L168.53-12.3Q168.53-9.1 169.63-7.08 170.73-5.05 172.46-4.08 174.18-3.1 175.93-3.1ZM197.43 0L193.23 0 193.23-24.8 196.28-24.8 197.63-20.2Q198.93-22.45 201.16-23.83 203.38-25.2 206.48-25.2L206.48-25.2 206.48-20.85Q206.13-20.85 205.75-20.85 205.38-20.85 205.03-20.8L205.03-20.8Q200.78-20.45 199.1-17.85 197.43-15.25 197.43-10.65L197.43-10.65 197.43 0ZM221.73 0L218.58 0Q216.23 0 214.95-0.48 213.68-0.95 213.2-2.3 212.73-3.65 212.73-6.2L212.73-6.2 212.73-21.45 208.53-21.45 208.53-24.8 212.73-24.8 212.73-31.05 216.93-31.05 216.93-24.8 221.73-24.8 221.73-21.45 216.93-21.45 216.93-6.9Q216.93-5 217.3-4.35 217.68-3.7 219.48-3.7L219.48-3.7 221.73-3.7 221.73 0ZM232.88 0L228.67 0 228.67-21.45 224.47-21.45 224.47-24.8 228.67-24.8 228.67-28.5Q228.67-31.05 229.17-32.55 229.67-34.05 231.13-34.68 232.57-35.3 235.32-35.3L235.32-35.3 238.03-35.3 238.03-31.75 235.42-31.75Q233.82-31.75 233.35-31.1 232.88-30.45 232.88-28.55L232.88-28.55 232.88-24.8 238.03-24.8 238.03-21.45 232.88-21.45 232.88 0ZM252.02 0.6L252.02 0.6Q249.87 0.6 247.77-0.15 245.67-0.9 243.95-2.48 242.22-4.05 241.17-6.5 240.12-8.95 240.12-12.3L240.12-12.3Q240.12-15.65 241.17-18.1 242.22-20.55 243.95-22.13 245.67-23.7 247.77-24.45 249.87-25.2 252.02-25.2L252.02-25.2Q254.17-25.2 256.3-24.45 258.42-23.7 260.15-22.13 261.87-20.55 262.9-18.1 263.92-15.65 263.92-12.3L263.92-12.3Q263.92-8.95 262.9-6.5 261.87-4.05 260.15-2.48 258.42-0.9 256.3-0.15 254.17 0.6 252.02 0.6ZM252.02-3.1L252.02-3.1Q253.82-3.1 255.52-4.08 257.22-5.05 258.32-7.08 259.42-9.1 259.42-12.3L259.42-12.3Q259.42-15.5 258.32-17.53 257.22-19.55 255.52-20.53 253.82-21.5 252.02-21.5L252.02-21.5Q250.27-21.5 248.55-20.53 246.82-19.55 245.72-17.53 244.62-15.5 244.62-12.3L244.62-12.3Q244.62-9.1 245.72-7.08 246.82-5.05 248.55-4.08 250.27-3.1 252.02-3.1ZM277.02 0L275.17 0Q272.82 0 271.55-0.48 270.27-0.95 269.8-2.3 269.32-3.65 269.32-6.2L269.32-6.2 269.32-33.35 273.52-33.35 273.52-6.9Q273.52-5 273.92-4.35 274.32-3.7 276.07-3.7L276.07-3.7 277.02-3.7 277.02 0ZM284.62-29.5L284.62-29.5Q283.37-29.5 282.44-30.43 281.52-31.35 281.52-32.65L281.52-32.65Q281.52-33.95 282.44-34.85 283.37-35.75 284.62-35.75L284.62-35.75Q285.92-35.75 286.84-34.85 287.77-33.95 287.77-32.65L287.77-32.65Q287.77-31.35 286.84-30.43 285.92-29.5 284.62-29.5ZM286.72 0L282.52 0 282.52-21.45 279.07-21.45 279.07-24.8 286.72-24.8 286.72 0ZM304.51 0.6L304.51 0.6Q302.36 0.6 300.26-0.15 298.16-0.9 296.44-2.48 294.71-4.05 293.66-6.5 292.61-8.95 292.61-12.3L292.61-12.3Q292.61-15.65 293.66-18.1 294.71-20.55 296.44-22.13 298.16-23.7 300.26-24.45 302.36-25.2 304.51-25.2L304.51-25.2Q306.66-25.2 308.79-24.45 310.91-23.7 312.64-22.13 314.36-20.55 315.39-18.1 316.41-15.65 316.41-12.3L316.41-12.3Q316.41-8.95 315.39-6.5 314.36-4.05 312.64-2.48 310.91-0.9 308.79-0.15 306.66 0.6 304.51 0.6ZM304.51-3.1L304.51-3.1Q306.31-3.1 308.01-4.08 309.71-5.05 310.81-7.08 311.91-9.1 311.91-12.3L311.91-12.3Q311.91-15.5 310.81-17.53 309.71-19.55 308.01-20.53 306.31-21.5 304.51-21.5L304.51-21.5Q302.76-21.5 301.04-20.53 299.31-19.55 298.21-17.53 297.11-15.5 297.11-12.3L297.11-12.3Q297.11-9.1 298.21-7.08 299.31-5.05 301.04-4.08 302.76-3.1 304.51-3.1Z" opacity="1" transform="matrix(1,0,0,1,0,0)" fill="#78d2d6" class="wordmark-text-0" data-fill-palette-color="quaternary" id="text-0"></path></svg></g></svg></g></svg></g></svg></g><g></g></svg></g><defs></defs></svg><rect width="395.52" height="85.15944906345686" fill="none" stroke="none" visibility="hidden"></rect></g></svg></g></svg>