<?xml version="1.0" encoding="UTF-8"?><svg id="Layer_2" xmlns="http://www.w3.org/2000/svg" xmlns:xlink="http://www.w3.org/1999/xlink" viewBox="0 0 174.44 157.96"><defs><style>.cls-1{fill:url(#linear-gradient-2);}.cls-2{fill:#108983;}.cls-3{fill:#ffcd7f;}.cls-4{fill:#0e4f4f;}.cls-5{fill:#ffaa3f;}.cls-6{fill:url(#linear-gradient);}.cls-7{fill:#f44d19;}</style><linearGradient id="linear-gradient" x1="51.96" y1="74.41" x2="63.99" y2="83.23" gradientUnits="userSpaceOnUse"><stop offset="0" stop-color="#ffaa3f"/><stop offset="1" stop-color="#ffcd7f" stop-opacity=".6"/></linearGradient><linearGradient id="linear-gradient-2" x1="69.72" y1="83.67" x2="82.63" y2="73.49" gradientUnits="userSpaceOnUse"><stop offset="0" stop-color="#ffcd7f" stop-opacity=".6"/><stop offset="1" stop-color="#ffaa3f"/></linearGradient></defs><g id="Layer_4"><path class="cls-2" d="M8.91,0s-1.96,8.82,4.41,10.78,8.33,3.43,8.33,3.43c0,0,7.35,2.94,7.35,6.37v29.88h12.73V15.18l57.31-.49s46.04,2.94,57.8,45.55c11.76,42.61-18.12,65.63-18.12,65.63,0,0-6.86,11.76-35.76,17.63l-19.35,13.71,26.23-2.94s48.96-6.37,61.69-53.39S154.38,4.9,100.99,0H8.91Z"/><path class="cls-4" d="M43,140.33l-15.18-4.41v22.04l49.11-.73,20.82-13.96s-37.6,4.9-54.75,1.47"/></g><g id="Layer_5"><path class="cls-7" d="M64.18,52.41h5.64s6.01-9.46-2.82-9.46-2.82,9.46-2.82,9.46Z"/><path class="cls-7" d="M70.73,52.9l3,4.78s11.21,.06,6.52-7.42c-4.69-7.48-9.52,2.64-9.52,2.64Z"/><path class="cls-7" d="M63.29,53.11l-3.42,4.49s-11.17-.95-5.83-7.97c5.34-7.03,9.24,3.48,9.24,3.48Z"/><path class="cls-7" d="M73.58,58.56l-4.54,3.36s.8,11.19,7.9,5.93c7.1-5.26-3.37-9.29-3.37-9.29Z"/><path class="cls-7" d="M59.73,58.42l4.43,3.74s-1.55,11.41-8.48,5.56c-6.93-5.85,4.05-9.3,4.05-9.3Z"/><path class="cls-7" d="M66.19,63.91s1.83,10.71,.48,14.7c0,0,2.86-7.77-.48-14.7Z"/><path class="cls-6" d="M66.96,84.41s1.65-9.24-16.41-14.28c0,0,1.73,18.27,16.41,17.85v-3.57Z"/><path class="cls-1" d="M67.04,84.41s-1.65-9.24,16.41-14.28c0,0-1.73,18.27-16.41,17.85v-3.57Z"/><path class="cls-3" d="M27.69,57.06s6.89-4.75,9.37-2.27-4.68,6.24-4.68,6.24c0,0-9.15,7.71,5.21,22.78,0,0,24.85,11.76,24.38,40.41,0,0-8.99-8.45-6.35-8.45s-7.71-20.57-12.67-19.65c0,0-29.39-20.62-15.24-39.06Z"/><path class="cls-5" d="M8.73,85.64s-5.65,4.22-7.86,2.02,0-5.88,3.93-6.8c5.07-1.8,23.99-8.27,38.13,15.24,0,0,8.27,11.2,12.67,19.65l6.35,8.45s-9.1,2.57-17.55-12.86c0,0-12.94-32.88-35.67-25.71Z"/><path class="cls-3" d="M106.09,57.06s-6.89-4.75-9.37-2.27c-2.48,2.48,4.68,6.24,4.68,6.24,0,0,9.15,7.71-5.21,22.78,0,0-24.85,11.76-24.38,40.41,0,0,8.99-8.45,6.35-8.45s7.71-20.57,12.67-19.65c0,0,29.39-20.62,15.24-39.06Z"/><path class="cls-5" d="M125.05,85.64s5.65,4.22,7.86,2.02,0-5.88-3.93-6.8c-5.07-1.8-23.99-8.27-38.13,15.24,0,0-8.27,11.2-12.67,19.65l-6.35,8.45s9.1,2.57,17.55-12.86c0,0,12.94-32.88,35.67-25.71Z"/><path class="cls-7" d="M14.83,61.85s-16.35-1.56-10.1-8.72,10.1,8.72,10.1,8.72Z"/><path class="cls-7" d="M14.83,63.72s-15.74-4.68-12.63,4.3c3.11,8.98,12.63-4.3,12.63-4.3Z"/><path class="cls-7" d="M118.24,61.85s16.35-1.56,10.1-8.72-10.1,8.72-10.1,8.72Z"/><path class="cls-7" d="M118.24,63.72s15.74-4.68,12.63,4.3-12.63-4.3-12.63-4.3Z"/><path class="cls-5" d="M11.16,95.2s6.06,36.73,55.01,36.73,55.56-36.73,55.56-36.73h6.61s-8.27,43.71-62.17,43.71S5.65,95.2,5.65,95.2h5.51Z"/></g></svg>