<svg xmlns="http://www.w3.org/2000/svg" version="1.1" xmlns:xlink="http://www.w3.org/1999/xlink" xmlns:svgjs="http://svgjs.dev/svgjs" width="2000" height="535" viewBox="0 0 2000 535"><g transform="matrix(1,0,0,1,-1.2121212121212466,-0.35968341221354194)"><svg viewBox="0 0 396 106" data-background-color="#e8e7d5" preserveAspectRatio="xMidYMid meet" height="535" width="2000" xmlns="http://www.w3.org/2000/svg" xmlns:xlink="http://www.w3.org/1999/xlink"><g id="tight-bounds" transform="matrix(1,0,0,1,0.2400000000000091,0.07126437699932353)"><svg viewBox="0 0 395.52 105.85747124600135" height="105.85747124600135" width="395.52"><g><svg viewBox="0 0 395.52 105.85747124600135" height="105.85747124600135" width="395.52"><g transform="matrix(1,0,0,1,0,65.42416402115327)"><svg viewBox="0 0 395.52 40.43330722484807" height="40.43330722484807" width="395.52"><g id="textblocktransform"><svg viewBox="0 0 395.52 40.43330722484807" height="40.43330722484807" width="395.52" id="textblock"><g><svg viewBox="0 0 395.52 40.43330722484807" height="40.43330722484807" width="395.52"><g transform="matrix(1,0,0,1,0,0)"><svg width="395.52" viewBox="0.25 -37.3 368.02 37.849999999999994" height="40.43330722484807" data-palette-color="#287379"><g class="wordmark-text-0" data-fill-palette-color="primary" id="text-0"><path d="M4.9-17.25Q4.9-12.4 5.63-9.75 6.35-7.1 7.58-6.13 8.8-5.15 10.6-5.15L10.6-5.15Q12.6-5.15 13.88-6.23 15.15-7.3 15.7-8.8 16.25-10.3 16.25-11.65L16.25-11.65 16.4-25.45Q16.3-26.95 16.3-28.75L16.3-28.75 16.35-33.6Q16.25-34.85 16.6-35.18 16.95-35.5 17.6-35.5L17.6-35.5Q17.9-35.55 18.55-35.63 19.2-35.7 19.75-35.7L19.75-35.7Q20.3-35.7 20.55-35.65L20.55-35.65Q21.4-35.6 21.6-35.33 21.8-35.05 21.75-34L21.75-34 21.65-18.7Q21.6-18.35 21.63-17.93 21.65-17.5 21.65-17.15L21.65-17.15 21.65-15.55Q21.65 0.35 12.2 0.35L12.2 0.35Q7.25 0.35 4.58-2.13 1.9-4.6 1.07-7.48 0.25-10.35 0.25-12.35L0.25-12.35 0.3-16.65Q0.35-17.6 0.35-18.8L0.35-18.8Q0.35-19.45 0.5-19.58 0.65-19.7 1.1-19.65L1.1-19.65Q1.65-19.65 4.2-20L4.2-20Q5.1-20.05 5.1-19.1L5.1-19.1Q5.1-18.8 5-18.25 4.9-17.7 4.9-17.25L4.9-17.25ZM36.5-35Q39.55-35 43-33.38 46.45-31.75 49.05-27.45 51.65-23.15 51.65-15.75L51.65-15.75Q51.65-9 48.42-5.53 45.2-2.05 41.65-1.07 38.1-0.1 35.75-0.1L35.75-0.1 31.65-0.05Q30.55 0 28.95 0L28.95 0Q28 0 28-1.7L28-1.7 28.05-3 27.95-5.5 27.9-7.75 27.85-9.25Q27.65-11.85 27.65-15.15L27.65-15.15Q27.65-17.1 27.85-20.3L27.85-20.3Q28.05-23.5 28.05-25.55L28.05-25.55 28-32.25Q27.95-33.05 27.95-34.05L27.95-34.05Q27.95-34.6 28.67-34.73 29.4-34.85 30.2-34.83 31-34.8 31.3-34.8L31.3-34.8 33.1-34.9Q35.2-35 36.5-35L36.5-35ZM36.6-10.7Q37.95-11.35 39.1-12.5L39.1-12.5Q41.6-14.9 41.6-18.2L41.6-18.2Q41.6-21.35 39.2-23.25L39.2-23.25Q38.15-24.05 36.85-24.45L36.85-24.45Q36.95-23.35 36.95-22.75L36.95-22.75Q36.95-21.8 36.85-20L36.85-20Q36.75-18.3 36.75-17.5L36.75-17.5Q36.75-16.2 36.65-13.3L36.65-13.3Q36.6-12.45 36.6-10.7L36.6-10.7ZM61.35-33.4Q61.85-31.65 62.65-29.25L62.65-29.25 63-28.1Q63.75-25.55 64.2-24.55L64.2-24.55Q64.84-23.05 65.59-20.75L65.59-20.75Q66.4-18.35 66.4-18.35L66.4-18.35 66.8-19.6Q67.09-20.7 67.5-21.75L67.5-21.75 68.05-23.25 68.55-24.55Q68.55-24.55 69.05-25.85L69.05-25.85Q69.45-26.95 69.65-27.3L69.65-27.3Q70.05-28.1 70.62-29.88 71.2-31.65 71.5-33.05L71.5-33.05Q71.75-34.05 72.12-34.3 72.5-34.55 72.9-34.52 73.3-34.5 73.4-34.5L73.4-34.5Q73.55-34.5 74.65-34.52 75.75-34.55 76.55-34.45L76.55-34.45Q77.59-34.3 77.59-33.95L77.59-33.95Q77.59-33.9 77.5-33.5L77.5-33.5Q77.4-33.25 77.27-32.88 77.15-32.5 77-32.05L77-32.05Q75.8-28.5 75.45-27.7L75.45-27.7Q74.55-25.5 73.27-22.2 72-18.9 71.09-16.5L71.09-16.5Q70.5-14.75 68.4-9.55L68.4-9.55Q66.59-5.25 66.45-4.6L66.45-4.6Q66.25-4 66.02-2.68 65.8-1.35 65.7-0.95L65.7-0.95Q65.45 0.1 64.9 0.05L64.9 0.05 63.55 0.05Q63.25 0.1 61.55 0.1L61.55 0.1 59.7 0.15Q59.1 0.15 59.1-0.15L59.1-0.15Q59.1-0.3 59.17-0.43 59.25-0.55 59.3-0.7L59.3-0.7 59.85-2.2Q61-5.45 61.05-5.55L61.05-5.55Q61.15-5.95 62-8.25L62-8.25 62.4-9.25Q62.5-9.5 62.7-9.93 62.9-10.35 62.92-10.63 62.95-10.9 62.85-11.15L62.85-11.15Q62.75-11.3 62.4-12.6L62.4-12.6Q62.3-12.9 62-13.93 61.7-14.95 61.4-15.5L61.4-15.5Q61.1-16.25 60.6-17.95L60.6-17.95Q60.25-19.1 59.95-20L59.95-20Q59.15-22.2 57.97-25.65 56.8-29.1 56.1-31.2L56.1-31.2Q55.85-32 55.45-32.8L55.45-32.8Q55.1-33.6 55.1-33.85L55.1-33.85Q55.1-34.2 55.47-34.33 55.85-34.45 56.6-34.5L56.6-34.5Q56.8-34.55 57.4-34.55L57.4-34.55Q58.15-34.55 58.6-34.5L58.6-34.5Q60.25-34.5 60.65-34.45L60.65-34.45Q61.05-34.4 61.17-34.25 61.3-34.1 61.3-33.85 61.3-33.6 61.35-33.4L61.35-33.4ZM85.99-37.3Q86.69-37.3 86.69-36.2L86.69-36.2Q86.64-35.45 86.64-34.2L86.64-34.2Q86.64-33.9 86.54-32.9L86.54-32.9Q86.44-31.6 86.44-30.65L86.44-30.65 86.39-24.6Q86.39-23.1 85.94-22.95L85.94-22.95Q85.49-22.8 84.54-22.8L84.54-22.8Q83.99-22.8 82.99-22.9L82.99-22.9Q82.49-23 82.37-23.28 82.24-23.55 82.24-24.15L82.24-24.15 82.24-36.05Q82.24-37.3 83.49-37.3L83.49-37.3 85.99-37.3ZM102.94-35.25Q107.29-35.25 109.39-33.55 111.49-31.85 111.59-31.75L111.59-31.75Q112.09-31.4 112.09-31.05L112.09-31.05Q112.09-30.85 111.89-30.65L111.89-30.65Q111.74-30.45 111.29-29.8 110.84-29.15 110.59-29.15L110.59-29.15Q110.34-29.15 109.94-29.4L109.94-29.4 109.59-29.7Q105.79-32.45 103.09-32.45L103.09-32.45Q99.64-32.45 97.87-30.88 96.09-29.3 96.09-26.9L96.09-26.9Q96.09-24.85 97.57-23.4 99.04-21.95 101.44-20.65L101.44-20.65Q102.14-20.35 102.89-20.1L102.89-20.1Q105.39-19.15 107.27-18.07 109.14-17 110.64-14.83 112.14-12.65 112.14-9.35L112.14-9.35Q112.14-3.7 108.29-1.63 104.44 0.45 99.69 0.45L99.69 0.45Q96.94 0.45 94.72-0.8 92.49-2.05 91.54-3L91.54-3Q91.04-3.45 91.29-3.9L91.29-3.9Q91.34-4 91.72-4.7 92.09-5.4 92.39-5.4L92.39-5.4 92.49-5.4Q92.64-5.4 92.77-5.33 92.89-5.25 93.07-5.05 93.24-4.85 93.49-4.6L93.49-4.6Q94.14-3.95 96.04-3.13 97.94-2.3 99.19-2.3L99.19-2.3Q101.84-2.3 104.24-3.43 106.64-4.55 106.64-8.2L106.64-8.2Q106.64-9.75 105.27-10.9 103.89-12.05 100.99-13.6L100.99-13.6 98.84-14.8Q95.34-16.8 93.37-19.1 91.39-21.4 91.39-25.15L91.39-25.15Q91.39-28.25 93.17-30.55 94.94-32.85 97.62-34.05 100.29-35.25 102.94-35.25L102.94-35.25Z" fill="#287379" data-fill-palette-color="primary"></path><path d="M144.89-35.05Q148.34-34.85 150.61-32.25 152.89-29.65 152.89-24.45L152.89-24.45Q152.89-21.05 151.44-19.05 149.99-17.05 148.09-16.28 146.19-15.5 144.74-15.5L144.74-15.5Q143.39-15.5 140.19-15.2L140.19-15.2Q138.34-15 137.19-14.95L137.19-14.95Q137.09-10.35 137.09-8.7L137.09-8.7Q137.09-2.2 137.24-1.65L137.24-1.65Q137.34-1.15 137.06-0.78 136.79-0.4 136.36-0.28 135.94-0.15 135.59-0.3L135.59-0.3Q135.44-0.35 134.74-0.35L134.74-0.35Q133.24-0.35 131.54-0.15L131.54-0.15Q130.74-0.05 130.49-0.48 130.24-0.9 130.24-1.8L130.24-1.8Q130.24-2.9 130.29-3.8L130.29-3.8 130.34-8 130.44-13.9Q130.74-24.5 130.74-30.45L130.74-30.45Q130.74-32.25 130.69-32.6L130.69-32.6Q130.59-33.7 130.59-33.9L130.59-33.9Q130.59-35.2 131.14-35.2L131.14-35.2Q131.39-35.2 132.16-35.15 132.94-35.1 134.34-35.1L134.34-35.1Q134.74-35.1 136.39-35.15 138.04-35.2 139.84-35.2L139.84-35.2Q142.49-35.2 144.89-35.05L144.89-35.05ZM143.34-19.1Q145.19-19.1 146.79-20.2 148.39-21.3 148.39-24.15L148.39-24.15Q148.39-27.2 147.14-28.78 145.89-30.35 143.49-30.8L143.49-30.8Q139.74-31.55 137.59-31.4L137.59-31.4Q137.59-30 137.54-29.3L137.54-29.3Q137.44-26.5 137.29-25.3L137.29-25.3Q137.09-23.55 137.19-21.35L137.19-21.35 137.29-19.4 139.64-19.25Q140.99-19.1 143.34-19.1L143.34-19.1ZM174.99-34.9Q177.98-32.9 179.81-29.5 181.64-26.1 182.36-22.88 183.09-19.65 183.09-17.8L183.09-17.8Q183.09-14.7 182.11-10.6 181.14-6.5 177.94-2.98 174.74 0.55 168.69 0.55L168.69 0.55Q160.39 0.55 156.89-9.1L156.89-9.1Q155.34-13.45 155.14-18.8L155.14-18.8Q155.14-23.2 156.99-27.18 158.84-31.15 161.86-33.55 164.89-35.95 168.09-35.95L168.09-35.95Q170.99-35.95 172.41-35.8 173.84-35.65 174.99-34.9L174.99-34.9ZM168.44-2.25Q173.74-2.25 176.34-6.68 178.94-11.1 178.94-17.8L178.94-17.8Q178.94-21.9 177.71-25.38 176.48-28.85 174.26-30.93 172.04-33 169.14-33L169.14-33Q168.89-33 167.81-33 166.74-33 165.94-32.65 165.14-32.3 164.49-31.6L164.49-31.6Q162.84-29.95 161.71-28.58 160.59-27.2 159.46-24.5 158.34-21.8 158.34-18.25L158.34-18.25Q158.34-14.05 159.36-10.43 160.39-6.8 162.64-4.53 164.89-2.25 168.44-2.25L168.44-2.25ZM210.83-2.05Q212.18-0.7 212.18-0.2L212.18-0.2Q212.18-0.1 211.93 0.15L211.93 0.15Q211.48 0.45 209.68 0.45L209.68 0.45Q208.38 0.45 208.03 0.28 207.68 0.1 207.51-0.3 207.33-0.7 207.23-0.9L207.23-0.9Q207.08-1.2 206.01-2.63 204.93-4.05 204.38-4.8L204.38-4.8Q201.73-8.2 199.78-10.95L199.78-10.95Q198.58-12.65 195.33-16.8L195.33-16.8 194.53-17.8 191.08-22.1 190.88-20.1Q190.68-18.6 190.78-16.5L190.78-16.5Q190.93-15.1 190.98-9.25 191.03-3.4 191.03-0.7L191.03-0.7Q191.03 0.1 190.43 0.33 189.83 0.55 189.03 0.55L189.03 0.55Q188.68 0.55 188.58 0.25 188.48-0.05 188.46-0.4 188.43-0.75 188.43-0.85L188.43-0.85Q188.33-1.65 188.33-3.2L188.33-3.2Q188.33-4.2 188.38-4.7L188.38-4.7Q188.43-7.4 188.53-14.13 188.63-20.85 188.63-26.2L188.63-26.2Q188.63-31.95 188.48-32.9L188.48-32.9Q188.43-33.3 188.43-33.95L188.43-33.95Q188.43-34.7 188.66-34.9 188.88-35.1 189.33-35.1L189.33-35.1Q190.33-35.1 191.28-35.05L191.28-35.05 196.73-34.95Q199.73-34.95 202.98-33.9 206.23-32.85 206.23-30L206.23-30Q206.23-27.3 204.23-25.8 202.23-24.3 199.76-23.75 197.28-23.2 195.43-23.2L195.43-23.2Q194.78-23.2 194.73-23.25L194.73-23.25Q195.03-22.95 198.68-17.95L198.68-17.95Q209.68-3.2 210.83-2.05L210.83-2.05ZM190.93-25.25Q192.58-25.25 193.43-25.3L193.43-25.3Q196.33-25.4 197.93-25.7L197.93-25.7Q200.23-26.1 201.41-26.8 202.58-27.5 202.58-29L202.58-29Q202.58-30 201.53-30.73 200.48-31.45 199.01-31.83 197.53-32.2 196.43-32.2L196.43-32.2Q195.18-32.25 192.93-32.25L192.93-32.25 191.23-32.25 190.93-25.25ZM239.83-35.95Q240.43-35.9 240.56-35.65 240.68-35.4 240.66-34.98 240.63-34.55 240.63-34.35L240.63-34.35Q240.68-33.7 240.38-33.45 240.08-33.2 239.43-33.2L239.43-33.2Q239.03-33.2 237.91-33.15 236.78-33.1 235.18-33.15L235.18-33.15 234.98-33.15 234.88-24.1 234.83-15.3Q234.83-13.3 235.06-10.23 235.28-7.15 235.33-6.35L235.33-6.35Q235.63-2.35 235.63-1.85L235.63-1.85Q235.68-0.85 235.18-0.55 234.68-0.25 233.43-0.25L233.43-0.25 231.23-0.3Q230.98-0.3 223.03-0.45L223.03-0.45 219.93-0.5Q219.43-0.5 219.43-1.5L219.43-1.5Q219.43-1.85 219.53-2.85L219.53-2.85Q219.63-4.15 219.63-4.85L219.63-4.85Q219.53-6.15 219.53-9.4L219.53-9.4Q219.53-13.75 219.66-18.7 219.78-23.65 219.98-26.15L219.98-26.15Q220.08-27.45 220.08-29.65L220.08-29.65Q220.08-32.1 219.93-33.35L219.93-33.35 219.03-33.4 214.88-33.3Q214.48-33.3 214.48-34.1L214.48-34.1 214.53-35.2Q214.53-35.6 214.66-35.73 214.78-35.85 215.08-35.85L215.08-35.85Q215.28-35.85 215.58-35.8 215.88-35.75 216.28-35.75L216.28-35.75 226.93-35.8 235.63-35.9Q237.68-35.95 239.83-35.95L239.83-35.95ZM247.98-34.6Q249.08-34.6 251.48-34.7L251.48-34.7 254.18-34.8 259.63-34.75 262.13-34.7Q262.88-34.65 264.18-34.65L264.18-34.65Q264.73-34.65 264.9-34.5 265.08-34.35 265.08-34L265.08-34 265.03-33.15 265.08-27.3 265.08-24.8 265.08-24.4Q265.08-24 264.95-23.88 264.83-23.75 264.33-23.75L264.33-23.75Q263.53-23.75 262.08-23.9L262.08-23.9Q261.33-23.95 260.58-24 259.83-24.05 259.28-24.05L259.28-24.05 253.98-24.05Q253.08-24.05 251.88-23.95L251.88-23.95 250.83-23.85Q250.78-23.55 250.78-22.95L250.78-22.95 250.78-21.3Q250.78-20.7 250.68-19.9L250.68-19.9 250.58-19.25 251.68-19.25 253.68-19.3 257.28-19.3Q258.53-19.3 260.23-19.4L260.23-19.4Q261.53-19.5 261.93-19.5L261.93-19.5Q262.53-19.5 262.73-19.35 262.93-19.2 262.93-18.9L262.93-18.9Q262.93-18.25 262.68-17.45L262.68-17.45Q262.63-17.1 262.48-17 262.33-16.9 261.98-16.9L261.98-16.9 259.98-16.95 255.33-17.05 252.68-17.05Q251.43-17.05 250.73-17L250.73-17 250.73-12.15Q250.73-8.55 250.58-6.3L250.58-6.3Q250.48-5 250.48-3.75L250.48-3.75 250.53-0.8Q250.53-0.25 250.28-0.15 250.03-0.05 249.38-0.05L249.38-0.05 245.93-0.05Q245.48-0.1 245.38-0.35 245.28-0.6 245.28-1.05 245.28-1.5 245.28-1.8L245.28-1.8Q245.18-2.6 245.18-4.15L245.18-4.15 245.23-8.35 245.33-13.6 245.43-16.8 245.38-18.25Q245.23-19.4 245.23-21.2L245.23-21.2Q245.23-22.35 245.33-23.85L245.33-23.85 245.38-25.6 245.38-30.1Q245.38-30.6 245.48-31.9L245.48-31.9 245.58-33.7 245.58-33.9Q245.58-34.4 245.75-34.55 245.93-34.7 246.28-34.7L246.28-34.7Q246.63-34.7 247.05-34.65 247.48-34.6 247.98-34.6L247.98-34.6ZM287.13-34.9Q290.13-32.9 291.95-29.5 293.78-26.1 294.5-22.88 295.23-19.65 295.23-17.8L295.23-17.8Q295.23-14.7 294.25-10.6 293.28-6.5 290.08-2.98 286.88 0.55 280.83 0.55L280.83 0.55Q272.53 0.55 269.03-9.1L269.03-9.1Q267.48-13.45 267.28-18.8L267.28-18.8Q267.28-23.2 269.13-27.18 270.98-31.15 274-33.55 277.03-35.95 280.23-35.95L280.23-35.95Q283.13-35.95 284.55-35.8 285.98-35.65 287.13-34.9L287.13-34.9ZM280.58-2.25Q285.88-2.25 288.48-6.68 291.08-11.1 291.08-17.8L291.08-17.8Q291.08-21.9 289.85-25.38 288.63-28.85 286.4-30.93 284.18-33 281.28-33L281.28-33Q281.03-33 279.95-33 278.88-33 278.08-32.65 277.28-32.3 276.63-31.6L276.63-31.6Q274.98-29.95 273.85-28.58 272.73-27.2 271.6-24.5 270.48-21.8 270.48-18.25L270.48-18.25Q270.48-14.05 271.5-10.43 272.53-6.8 274.78-4.53 277.03-2.25 280.58-2.25L280.58-2.25ZM304.72-34.6L304.62-31.7Q304.37-24.7 304.37-24.1L304.37-24.1 304.32-16.95Q304.32-16 304.37-15.3L304.37-15.3 304.42-12.3Q304.42-11.25 304.37-11L304.37-11Q304.32-10.7 304.35-10.45 304.37-10.2 304.37-10.1L304.37-10.1Q304.37-9.9 304.42-9.85L304.42-9.85 305.62-9.75Q307.22-9.65 308.27-9.7L308.27-9.7 317.52-9.8Q317.52-9.8 322.77-9.65L322.77-9.65 325.12-9.6Q325.67-9.55 325.67-9.3L325.67-9.3Q325.67-9.2 325.62-9.05 325.57-8.9 325.57-8.75L325.57-8.75 325.57-6.45Q325.57-5.55 325.87-2.65L325.87-2.65 326.07-0.55 326.12-0.3Q326.12-0.05 325.87 0.03 325.62 0.1 324.97 0.1L324.97 0.1 321.32 0.05 315.12-0.05Q313.87-0.05 311.62 0.1L311.62 0.1Q310.62 0.15 309.4 0.2 308.17 0.25 306.97 0.25L306.97 0.25 306.12 0.2Q305.82 0.15 304.97 0.15L304.97 0.15 302.72 0.2Q302.12 0.25 301.17 0.25L301.17 0.25Q300.52 0.25 300.4 0.08 300.27-0.1 300.3-0.45 300.32-0.8 300.32-1.05L300.32-1.05Q300.32-2.15 300.47-4.85L300.47-4.85 300.62-10 300.52-12.35Q300.47-13.05 300.42-14.03 300.37-15 300.37-16.05L300.37-16.05Q300.37-14.35 300.67-19.48 300.97-24.6 300.97-25.8L300.97-25.8 300.92-31.45 300.82-34.65 300.82-34.7Q300.82-35.1 301.37-35.1L301.37-35.1 302.07-35.05Q302.32-35.05 302.72-35.02 303.12-35 303.97-35L303.97-35 304.42-35Q304.72-35 304.72-34.6L304.72-34.6ZM330.82-35.25Q331.47-35.2 332.1-35.23 332.72-35.25 333.17-35.25L333.17-35.25Q334.27-35.25 334.77-35.2L334.77-35.2Q335.37-35.15 335.62-34.95 335.87-34.75 335.87-34.4L335.87-34.4Q335.87-34.15 335.82-33.85 335.77-33.55 335.72-33.3L335.72-33.3Q335.17-29.05 335.12-24.55L335.12-24.55Q335.07-23.25 335.07-20.55L335.07-20.55 335.12-14.5Q335.17-13.75 335.17-12.95L335.17-12.95 335.22-10.95Q335.32-8.35 335.32-7.1L335.32-7.1Q335.32-6.15 335.27-5.95L335.27-5.95Q335.22-5.75 335.22-4.8L335.22-4.8 335.27-2.05Q335.32-1.45 335.32-0.55L335.32-0.55Q335.37 0.1 334.95 0.28 334.52 0.45 333.82 0.4L333.82 0.4 329.27 0.4Q328.52 0.45 328.32 0.08 328.12-0.3 328.07-1.15L328.07-1.15Q327.97-1.5 328.17-3L328.17-3Q328.37-4.4 328.37-5.4L328.37-5.4Q328.37-5.75 328.72-12.15L328.72-12.15Q329.02-16.85 329.02-17.3L329.02-17.3 329.12-22.2 329.22-26.75 329.32-29.45 329.42-31.25 329.42-33.35Q329.42-35.3 330.42-35.3L330.42-35.3Q330.67-35.3 330.82-35.25L330.82-35.25ZM360.17-34.9Q363.17-32.9 364.99-29.5 366.82-26.1 367.54-22.88 368.27-19.65 368.27-17.8L368.27-17.8Q368.27-14.7 367.29-10.6 366.32-6.5 363.12-2.98 359.92 0.55 353.87 0.55L353.87 0.55Q345.57 0.55 342.07-9.1L342.07-9.1Q340.52-13.45 340.32-18.8L340.32-18.8Q340.32-23.2 342.17-27.18 344.02-31.15 347.04-33.55 350.07-35.95 353.27-35.95L353.27-35.95Q356.17-35.95 357.59-35.8 359.02-35.65 360.17-34.9L360.17-34.9ZM353.62-2.25Q358.92-2.25 361.52-6.68 364.12-11.1 364.12-17.8L364.12-17.8Q364.12-21.9 362.89-25.38 361.67-28.85 359.44-30.93 357.22-33 354.32-33L354.32-33Q354.07-33 352.99-33 351.92-33 351.12-32.65 350.32-32.3 349.67-31.6L349.67-31.6Q348.02-29.95 346.89-28.58 345.77-27.2 344.64-24.5 343.52-21.8 343.52-18.25L343.52-18.25Q343.52-14.05 344.54-10.43 345.57-6.8 347.82-4.53 350.07-2.25 353.62-2.25L353.62-2.25Z" fill="#287379" data-fill-palette-color="primary"></path></g></svg></g></svg></g></svg></g></svg></g><g transform="matrix(1,0,0,1,156.30151279196707,0)"><svg viewBox="0 0 82.91697441606586 55.87883058474004" height="55.87883058474004" width="82.91697441606586"><g><svg xmlns="http://www.w3.org/2000/svg" xmlns:xlink="http://www.w3.org/1999/xlink" version="1.0" x="0" y="0" viewBox="1 9 46 31" enable-background="new 0 0 48 48" xml:space="preserve" height="55.87883058474004" width="82.91697441606586" class="icon-icon-0" data-fill-palette-color="accent" id="icon-0"><rect x="1" y="33" fill="#287379" width="4" height="3" data-fill-palette-color="accent"></rect><rect x="1" y="23" fill="#287379" width="4" height="3" data-fill-palette-color="accent"></rect><rect x="1" y="13" fill="#287379" width="4" height="3" data-fill-palette-color="accent"></rect><path fill="#287379" d="M2 9V12H6V17H2V22H6V27H2V32H6V37H2V40H47V9zM35 25H17V16H35z" data-fill-palette-color="accent"></path><rect x="18" y="17" fill="#287379" width="16" height="7" data-fill-palette-color="accent"></rect></svg></g></svg></g><g></g></svg></g><defs></defs></svg><rect width="395.52" height="105.85747124600135" fill="none" stroke="none" visibility="hidden"></rect></g></svg></g></svg>